<?xml version="1.0" encoding="UTF-8"?>
<svg version="1.1" xmlns="http://www.w3.org/2000/svg" width="120" height="137">
<path d="M0 0 C0.92619141 0.2165625 0.92619141 0.2165625 1.87109375 0.4375 C10.67729655 2.36762664 17.32266906 2.57106102 26 0 C29.89151673 -0.2830194 33.14677228 -0.03356808 36.875 1 C44.48441254 3.05263537 51.48542492 1.98967473 59 0 C66.00821444 7.66014136 69.03111464 13.08477136 68.984375 23.47265625 C68.43137273 35.62613785 66.41144225 47.06888665 61 58 C60.45166073 59.3306031 59.90949048 60.66377379 59.375 62 C58 65 58 65 56 66 C55.5875 66.70125 55.175 67.4025 54.75 68.125 C50.92738555 74.40500945 46.19920086 78.86990975 40.5 83.375 C39.95424316 83.81610107 39.40848633 84.25720215 38.84619141 84.71166992 C35.27816622 87.45058154 32.5397738 89.05850224 28 89 C22.87023677 86.64742402 18.95192467 83.47721228 14.875 79.625 C14.37613281 79.16867188 13.87726562 78.71234375 13.36328125 78.2421875 C-0.07073031 65.75522114 -6.30125322 50.77174731 -9 33 C-9.14308594 32.07058594 -9.28617188 31.14117187 -9.43359375 30.18359375 C-10.31774597 23.20861509 -10.70389274 16.10351891 -7.25 9.8125 C-6.5075 8.884375 -5.765 7.95625 -5 7 C-4.07715697 5.71273884 -3.16055195 4.42098445 -2.25 3.125 C-1.5075 2.09375 -0.765 1.0625 0 0 Z " fill="#E5622A" transform="translate(34,22)"/>
<path d="M0 0 C2.75310894 0.24606803 5.39294337 0.22420646 8.15429688 0.12255859 C9.0953125 0.09226562 10.03632812 0.06197266 11.00585938 0.03076172 C12.94415686 -0.04146481 14.8818234 -0.13293874 16.81835938 -0.24267578 C23.72515735 -0.41867545 23.72515735 -0.41867545 26.38671875 1.48828125 C31.73933776 7.69908559 30.96444201 14.51508755 30.63867188 22.23583984 C29.35057596 36.58054431 29.35057596 36.58054431 25.63867188 40.23583984 C22.89648438 41.68505859 22.89648438 41.68505859 19.76367188 42.92333984 C18.735 43.33970703 17.70632812 43.75607422 16.64648438 44.18505859 C13.96881286 45.12050488 11.43066289 45.76707382 8.63867188 46.23583984 C8.63867188 46.89583984 8.63867188 47.55583984 8.63867188 48.23583984 C9.95867187 48.23583984 11.27867188 48.23583984 12.63867188 48.23583984 C12.63867188 48.89583984 12.63867188 49.55583984 12.63867188 50.23583984 C12.96867187 50.23583984 13.29867187 50.23583984 13.63867188 50.23583984 C13.96867187 49.24583984 14.29867187 48.25583984 14.63867188 47.23583984 C12.98867187 47.23583984 11.33867188 47.23583984 9.63867188 47.23583984 C9.63867188 46.90583984 9.63867188 46.57583984 9.63867188 46.23583984 C14.93961403 44.43279829 20.24175676 42.7286036 25.63867188 41.23583984 C24.64867187 44.53583984 23.65867188 47.83583984 22.63867188 51.23583984 C21.97867188 51.23583984 21.31867188 51.23583984 20.63867188 51.23583984 C20.30867188 52.22583984 19.97867188 53.21583984 19.63867188 54.23583984 C14.68867187 54.23583984 9.73867187 54.23583984 4.63867188 54.23583984 C4.63867188 54.89583984 4.63867188 55.55583984 4.63867188 56.23583984 C8.92867187 56.23583984 13.21867187 56.23583984 17.63867188 56.23583984 C17.63867188 56.89583984 17.63867188 57.55583984 17.63867188 58.23583984 C16.97867188 58.23583984 16.31867188 58.23583984 15.63867188 58.23583984 C15.39117187 58.79271484 15.14367187 59.34958984 14.88867188 59.92333984 C11.66314202 65.89057007 7.07345005 69.39719798 1.63867188 73.23583984 C0.64867188 72.74083984 0.64867188 72.74083984 -0.36132812 72.23583984 C-0.03132813 71.59646484 0.29867187 70.95708984 0.63867188 70.29833984 C1.58308552 67.40607305 1.71818171 65.71248931 1.63867188 62.73583984 C1.54058723 59.03314447 2.12380442 56.64429161 3.63867188 53.23583984 C3.80554635 50.65229766 3.80554635 50.65229766 3.63867188 48.23583984 C3.63867188 47.24583984 3.63867188 46.25583984 3.63867188 45.23583984 C4.56679687 44.63771484 5.49492188 44.03958984 6.45117188 43.42333984 C10.07113201 40.93905348 11.16530552 39.32852417 12.63867188 35.23583984 C12.8906401 31.98483621 12.8906401 31.98483621 12.63867188 29.23583984 C12.50589844 29.86232422 12.373125 30.48880859 12.23632812 31.13427734 C12.05972656 31.95154297 11.883125 32.76880859 11.70117188 33.61083984 C11.52714844 34.42294922 11.353125 35.23505859 11.17382812 36.07177734 C10.63867188 38.23583984 10.63867188 38.23583984 9.63867188 40.23583984 C8.97867188 40.23583984 8.31867188 40.23583984 7.63867188 40.23583984 C7.80367187 39.55521484 7.96867187 38.87458984 8.13867188 38.17333984 C9.12824637 32.3595897 8.78496266 27.73570997 6.63867188 22.23583984 C5.97867188 22.23583984 5.31867188 22.23583984 4.63867188 22.23583984 C3.64867187 21.90583984 2.65867188 21.57583984 1.63867188 21.23583984 C1.63867188 20.24583984 1.63867188 19.25583984 1.63867188 18.23583984 C0.97867188 18.23583984 0.31867188 18.23583984 -0.36132812 18.23583984 C-0.85632813 19.72083984 -0.85632813 19.72083984 -1.36132812 21.23583984 C-2.68132813 20.90583984 -4.00132813 20.57583984 -5.36132812 20.23583984 C-5.36132812 20.89583984 -5.36132812 21.55583984 -5.36132812 22.23583984 C-7.01132812 21.90583984 -8.66132812 21.57583984 -10.36132812 21.23583984 C-10.03132813 22.55583984 -9.70132813 23.87583984 -9.36132812 25.23583984 C-10.35132812 24.90583984 -11.34132813 24.57583984 -12.36132812 24.23583984 C-12.36132812 23.57583984 -12.36132812 22.91583984 -12.36132812 22.23583984 C-12.98007812 21.96771484 -13.59882812 21.69958984 -14.23632812 21.42333984 C-16.36132812 20.23583984 -16.36132812 20.23583984 -18.36132812 17.23583984 C-15.06132813 17.23583984 -11.76132812 17.23583984 -8.36132812 17.23583984 C-8.69132812 16.90583984 -9.02132812 16.57583984 -9.36132812 16.23583984 C-12.27529496 16.32776309 -15.17875255 16.49844195 -18.08789062 16.68896484 C-22.63240147 16.05989174 -24.80354853 14.08564818 -28.36132812 11.23583984 C-17.61778442 18.91171334 -17.61778442 18.91171334 -14.36132812 23.23583984 C-13.73446863 27.43680954 -14.57509063 30.42319846 -16.36132812 34.23583984 C-17.02132812 34.23583984 -17.68132813 34.23583984 -18.36132812 34.23583984 C-18.15507813 35.18458984 -17.94882812 36.13333984 -17.73632812 37.11083984 C-17.61257812 38.14208984 -17.48882812 39.17333984 -17.36132812 40.23583984 C-18.02132812 40.89583984 -18.68132813 41.55583984 -19.36132812 42.23583984 C-20.35132813 41.57583984 -21.34132813 40.91583984 -22.36132812 40.23583984 C-20.87632813 39.74083984 -20.87632813 39.74083984 -19.36132812 39.23583984 C-19.36132812 38.57583984 -19.36132812 37.91583984 -19.36132812 37.23583984 C-20.02132812 37.23583984 -20.68132813 37.23583984 -21.36132812 37.23583984 C-21.36132812 36.57583984 -21.36132812 35.91583984 -21.36132812 35.23583984 C-22.02132812 35.23583984 -22.68132813 35.23583984 -23.36132812 35.23583984 C-23.36132812 37.87583984 -23.36132812 40.51583984 -23.36132812 43.23583984 C-22.70132813 43.56583984 -22.04132812 43.89583984 -21.36132812 44.23583984 C-23.34132813 44.73083984 -23.34132813 44.73083984 -25.36132812 45.23583984 C-25.85632813 47.71083984 -25.85632813 47.71083984 -26.36132812 50.23583984 C-30.05339558 47.77446154 -31.11544804 45.34654024 -32.36132812 41.23583984 C-32.97309306 38.06905663 -33.4799659 34.90582191 -33.93164062 31.71240234 C-34.10539477 29.2998332 -34.10539477 29.2998332 -35.36132812 28.23583984 C-35.72517832 24.68372575 -35.73304397 21.116563 -35.79882812 17.54833984 C-35.8674707 16.05657227 -35.8674707 16.05657227 -35.9375 14.53466797 C-36.00802322 9.92612884 -36.03651973 6.21404211 -33.00585938 2.54833984 C-28.72486865 -0.95993174 -23.87152648 -0.38248564 -18.61132812 -0.07666016 C-16.72083171 -0.00668889 -14.83020568 0.05988908 -12.93945312 0.12255859 C-12.10833008 0.16598389 -11.27720703 0.20940918 -10.42089844 0.25415039 C-6.76452161 0.22164348 -3.94359838 -0.49650188 0 0 Z " fill="#A9A1D0" transform="translate(66.361328125,29.76416015625)"/>
<path d="M0 0 C2.19619559 1.01966224 3.9444798 1.95027858 5.7578125 3.57421875 C8.72627502 5.46182994 10.64797413 5.20503347 14.125 5 C17.3203125 4.8125 17.3203125 4.8125 20 5 C20.99 6.485 20.99 6.485 22 8 C18.7 8 15.4 8 12 8 C12.825 8.61875 13.65 9.2375 14.5 9.875 C15.7375 10.926875 15.7375 10.926875 17 12 C17 12.66 17 13.32 17 14 C17.66 13.67 18.32 13.34 19 13 C19 12.34 19 11.68 19 11 C21.475 11.495 21.475 11.495 24 12 C23.67 11.01 23.34 10.02 23 9 C25.475 9.495 25.475 9.495 28 10 C28.33 9.34 28.66 8.68 29 8 C29.66 8 30.32 8 31 8 C31.33 8.99 31.66 9.98 32 11 C33.32 10.67 34.64 10.34 36 10 C38.62689407 16.23887342 40.28159173 21.23532428 38 27.9375 C37.67 28.618125 37.34 29.29875 37 30 C37.66 30 38.32 30 39 30 C39.99 25.71 40.98 21.42 42 17 C42.33 17 42.66 17 43 17 C43.28951652 22.59731932 43.18452849 26.1683016 40 31 C37.4375 33.25 37.4375 33.25 35 35 C34.34 35.66 33.68 36.32 33 37 C33.33 37.33 33.66 37.66 34 38 C33.9140625 39.99609375 33.9140625 39.99609375 33.625 42.4375 C33.48964844 43.64212891 33.48964844 43.64212891 33.3515625 44.87109375 C33 47 33 47 32 49 C32.04125 50.216875 32.0825 51.43375 32.125 52.6875 C32.18230734 57.17384585 31.16387884 60.07296063 29 64 C27.515 64.495 27.515 64.495 26 65 C17.17629945 59.89728306 7.03972879 51.62772368 3 42 C2.77765117 39.24390863 3.15733084 37.69654133 4 35 C4.495 34.505 4.495 34.505 5 34 C5.23192865 32.48530552 5.41215238 30.96245438 5.5625 29.4375 C5.64628906 28.61121094 5.73007812 27.78492187 5.81640625 26.93359375 C5.87699219 26.29550781 5.93757813 25.65742187 6 25 C6.66 25 7.32 25 8 25 C8 25.66 8 26.32 8 27 C8.66 27 9.32 27 10 27 C10 27.66 10 28.32 10 29 C9.34 29.33 8.68 29.66 8 30 C8.99 30 9.98 30 11 30 C11 28.02 11 26.04 11 24 C11.66 24 12.32 24 13 24 C12.979375 22.9275 12.95875 21.855 12.9375 20.75 C12.98663398 17.80196101 13.22283909 15.76595853 14 13 C13.57589844 12.64172119 13.15179688 12.28344238 12.71484375 11.91430664 C10.80735324 10.30001419 8.90364092 8.68132978 7 7.0625 C6.33226562 6.49853516 5.66453125 5.93457031 4.9765625 5.35351562 C4.34492187 4.81533203 3.71328125 4.27714844 3.0625 3.72265625 C2.47597656 3.22515869 1.88945313 2.72766113 1.28515625 2.21508789 C0.86105469 1.81410889 0.43695313 1.41312988 0 1 C0 0.67 0 0.34 0 0 Z " fill="#7A669B" transform="translate(37,40)"/>
<path d="M0 0 C1.9940041 0.49294979 3.98294633 0.99535516 5.96484375 1.53515625 C9.73333408 2.54257446 13.06163239 3.24614798 17 3 C17.33 3.99 17.66 4.98 18 6 C36.81195776 9.22655324 58.54610838 10.72254392 77 5 C77.66 4.34 78.32 3.68 79 3 C81.5 2.875 81.5 2.875 84 3 C86.46620289 3 88.29344126 2.29939157 90.625 1.5 C91.44226563 1.2215625 92.25953125 0.943125 93.1015625 0.65625 C93.72804688 0.4396875 94.35453125 0.223125 95 0 C94.67 1.65 94.34 3.3 94 5 C95.65 5.66 97.3 6.32 99 7 C99 7.66 99 8.32 99 9 C92.45783241 12.94998798 87.57771707 13.50146657 80 13 C80 13.66 80 14.32 80 15 C67.6858671 19.7921995 52.81663904 19.30366383 39.8125 18.75 C38.4349353 18.69235474 38.4349353 18.69235474 37.02954102 18.63354492 C21.55571146 17.77785573 21.55571146 17.77785573 16 15 C16 14.34 16 13.68 16 13 C15.2265625 13.04640625 14.453125 13.0928125 13.65625 13.140625 C6.50850733 13.38831905 2.10663759 12.75793083 -4 9 C-4 8.34 -4 7.68 -4 7 C-2.02 6.67 -0.04 6.34 2 6 C1.34 4.02 0.68 2.04 0 0 Z " fill="#DD2E1E" transform="translate(16,104)"/>
<path d="M0 0 C0.66007519 22.07584788 0.66007519 22.07584788 -3.20703125 29.234375 C-5.54543333 31.53711518 -7.82923813 32.48362654 -10.875 33.6875 C-11.90367188 34.10386719 -12.93234375 34.52023438 -13.9921875 34.94921875 C-16.66985901 35.88466503 -19.20800899 36.53123398 -22 37 C-22 37.66 -22 38.32 -22 39 C-20.68 39 -19.36 39 -18 39 C-18 39.66 -18 40.32 -18 41 C-17.67 41 -17.34 41 -17 41 C-16.67 40.01 -16.34 39.02 -16 38 C-17.65 38 -19.3 38 -21 38 C-21 37.67 -21 37.34 -21 37 C-15.69905784 35.19695845 -10.39691512 33.49276376 -5 32 C-5.99 35.3 -6.98 38.6 -8 42 C-8.66 42 -9.32 42 -10 42 C-10.33 42.99 -10.66 43.98 -11 45 C-15.95 45 -20.9 45 -26 45 C-26 45.66 -26 46.32 -26 47 C-21.71 47 -17.42 47 -13 47 C-13 47.66 -13 48.32 -13 49 C-13.66 49 -14.32 49 -15 49 C-15.2475 49.556875 -15.495 50.11375 -15.75 50.6875 C-18.97552985 56.65473022 -23.56522183 60.16135814 -29 64 C-29.66 63.67 -30.32 63.34 -31 63 C-30.67 62.360625 -30.34 61.72125 -30 61.0625 C-29.05558635 58.17023321 -28.92049016 56.47664947 -29 53.5 C-29.09808465 49.79730463 -28.51486745 47.40845177 -27 44 C-26.83312552 41.41645782 -26.83312552 41.41645782 -27 39 C-27 38.01 -27 37.02 -27 36 C-26.071875 35.401875 -25.14375 34.80375 -24.1875 34.1875 C-20.52378596 31.67318644 -19.44300114 30.16866997 -18 26 C-17.56822454 21.8581539 -17.89443804 18.01212001 -19 14 C-17.12812601 12.41284471 -15.2526762 10.83026649 -13.375 9.25 C-12.85292969 8.8065625 -12.33085938 8.363125 -11.79296875 7.90625 C-2.37522978 0 -2.37522978 0 0 0 Z " fill="#FCF8F9" transform="translate(97,39)"/>
<path d="M0 0 C0.92619141 0.2165625 0.92619141 0.2165625 1.87109375 0.4375 C10.67729655 2.36762664 17.32266906 2.57106102 26 0 C29.89151673 -0.2830194 33.14677228 -0.03356808 36.875 1 C44.48441254 3.05263537 51.48542492 1.98967473 59 0 C66.72833563 8.44725057 69.35556905 14.3272699 68.86303711 25.75317383 C68.5563201 31.17139942 67.90890693 35.89915033 66 41 C65.67 41 65.34 41 65 41 C65 39.35 65 37.7 65 36 C64.34 36 63.68 36 63 36 C62.94392578 34.02966797 62.94392578 34.02966797 62.88671875 32.01953125 C62.82104343 30.28382636 62.75459663 28.54815053 62.6875 26.8125 C62.66494141 25.94818359 62.64238281 25.08386719 62.61914062 24.19335938 C62.41297821 19.30168757 62.0406339 16.03349395 59 12 C58.31903578 10.67391178 57.64669414 9.34313399 57 8 C56.34515625 8.16242187 55.6903125 8.32484375 55.015625 8.4921875 C51.24958799 9.12636472 47.55603108 9.14801107 43.75 9.125 C42.99581787 9.1237915 42.24163574 9.12258301 41.46459961 9.12133789 C37.45976346 9.09328375 33.54159224 8.93732072 29.5625 8.4375 C26.16515671 7.68704589 26.16515671 7.68704589 24 9 C22.46261983 9.03707363 20.92351396 9.01335823 19.38671875 8.95703125 C18.46826172 8.93576172 17.54980469 8.91449219 16.60351562 8.89257812 C14.67085611 8.83950442 12.73848389 8.77453936 10.80664062 8.69726562 C5.00615049 8.56257882 5.00615049 8.56257882 -0.16796875 11.01171875 C-1.07482422 11.99591797 -1.07482422 11.99591797 -2 13 C-1.34 11.02 -0.68 9.04 0 7 C-1.98 7.99 -1.98 7.99 -4 9 C-4 5.00095031 -2.27413033 3.19799578 0 0 Z " fill="#E2521D" transform="translate(34,22)"/>
<path d="M0 0 C3.56710246 1.69922929 6.33196882 3.77664069 9.375 6.3125 C10.33792969 7.11171875 11.30085938 7.9109375 12.29296875 8.734375 C13.18628906 9.48203125 14.07960938 10.2296875 15 11 C16.01513672 11.84304687 16.01513672 11.84304687 17.05078125 12.703125 C18.36995322 13.79876187 19.68554927 14.89870344 21 16 C20.34 19.63 19.68 23.26 19 27 C18.34 27 17.68 27 17 27 C17.20625 27.94875 17.4125 28.8975 17.625 29.875 C17.74875 30.90625 17.8725 31.9375 18 33 C17.34 33.66 16.68 34.32 16 35 C15.01 34.34 14.02 33.68 13 33 C14.485 32.505 14.485 32.505 16 32 C16 31.34 16 30.68 16 30 C15.34 30 14.68 30 14 30 C14 29.34 14 28.68 14 28 C13.34 28 12.68 28 12 28 C12 30.64 12 33.28 12 36 C12.66 36.33 13.32 36.66 14 37 C12.02 37.495 12.02 37.495 10 38 C9.505 40.475 9.505 40.475 9 43 C5.30793255 40.5386217 4.24588008 38.11070039 3 34 C2.38823506 30.83321679 1.88136223 27.66998207 1.4296875 24.4765625 C1.25593336 22.06399336 1.25593336 22.06399336 0 21 C-0.08685603 19.43827255 -0.10702219 17.87270656 -0.09765625 16.30859375 C-0.09443359 15.36435547 -0.09121094 14.42011719 -0.08789062 13.44726562 C-0.07951172 12.45404297 -0.07113281 11.46082031 -0.0625 10.4375 C-0.05798828 9.44041016 -0.05347656 8.44332031 -0.04882812 7.41601562 C-0.03700007 4.94395151 -0.02051849 2.47200482 0 0 Z " fill="#FCFAFB" transform="translate(31,37)"/>
<path d="M0 0 C0.66 0 1.32 0 2 0 C2.33 0.99 2.66 1.98 3 3 C4.32 2.67 5.64 2.34 7 2 C10.27411416 9.77602112 10.84230697 15.35380548 8.046875 23.3984375 C7 25 7 25 4.890625 25.7265625 C4.26671875 25.81679687 3.6428125 25.90703125 3 26 C3 25.34 3 24.68 3 24 C2.01 24 1.02 24 0 24 C0 24.99 0 25.98 0 27 C-0.66 27 -1.32 27 -2 27 C-2 26.01 -2 25.02 -2 24 C-2.66 24 -3.32 24 -4 24 C-4 24.66 -4 25.32 -4 26 C-4.99 25.67 -5.98 25.34 -7 25 C-6.67 24.01 -6.34 23.02 -6 22 C-6.66 22 -7.32 22 -8 22 C-8.33 22.66 -8.66 23.32 -9 24 C-11.80324191 17.34230047 -11.8558792 9.95954701 -10 3 C-8.35 3.33 -6.7 3.66 -5 4 C-5.33 3.01 -5.66 2.02 -6 1 C-4.35 1.33 -2.7 1.66 -1 2 C-0.67 1.34 -0.34 0.68 0 0 Z " fill="#E04B23" transform="translate(66,48)"/>
<path d="M0 0 C0.33 0 0.66 0 1 0 C1 1.98 1 3.96 1 6 C1.66 6 2.32 6 3 6 C5.27307816 11.09483036 4.78464263 14.32758266 2.875 19.375 C2.63998779 20.03258301 2.40497559 20.69016602 2.1628418 21.36767578 C-2.549305 34.2746525 -2.549305 34.2746525 -6 36 C-6.4125 36.70125 -6.825 37.4025 -7.25 38.125 C-11.74315886 45.50661813 -17.91358087 51.09303711 -25 56 C-25.66 56 -26.32 56 -27 56 C-26.8125 54.1875 -26.8125 54.1875 -26 52 C-21.82142857 49 -21.82142857 49 -19 49 C-19 48.34 -19 47.68 -19 47 C-18.34 46.5875 -17.68 46.175 -17 45.75 C-16.34 45.1725 -15.68 44.595 -15 44 C-14.74994614 40.95817107 -14.74994614 40.95817107 -15 38 C-14.67 37.34 -14.34 36.68 -14 36 C-13.34 36 -12.68 36 -12 36 C-12 35.34 -12 34.68 -12 34 C-16.29 34 -20.58 34 -25 34 C-25 33.34 -25 32.68 -25 32 C-23.92878906 31.95101562 -22.85757813 31.90203125 -21.75390625 31.8515625 C-20.35674361 31.77654706 -18.9596095 31.7009987 -17.5625 31.625 C-16.85544922 31.5940625 -16.14839844 31.563125 -15.41992188 31.53125 C-13.60760812 31.42719371 -11.80182012 31.22080108 -10 31 C-9.67 30.34 -9.34 29.68 -9 29 C-8.34 29 -7.68 29 -7 29 C-6.34 26.03 -5.68 23.06 -5 20 C-6.65420222 20.53739056 -8.29833295 21.10586008 -9.9375 21.6875 C-10.85402344 22.00074219 -11.77054688 22.31398438 -12.71484375 22.63671875 C-15.26532213 23.81257756 -15.26532213 23.81257756 -15.81640625 26.64453125 C-15.87699219 27.42183594 -15.93757813 28.19914062 -16 29 C-17.875 29.625 -17.875 29.625 -20 30 C-20.66 29.34 -21.32 28.68 -22 28 C-20.35 28 -18.7 28 -17 28 C-17.639375 27.731875 -18.27875 27.46375 -18.9375 27.1875 C-21 26 -21 26 -22 23 C-20.824375 22.731875 -19.64875 22.46375 -18.4375 22.1875 C-15.54456378 21.47452458 -12.90295495 20.59927563 -10.1875 19.375 C-7 18 -7 18 -4 18 C-1.82971933 14.38894478 -1.41193503 10.89207026 -0.875 6.75 C-0.70742187 5.48671875 -0.53984375 4.2234375 -0.3671875 2.921875 C-0.24601562 1.95765625 -0.12484375 0.9934375 0 0 Z " fill="#E5611E" transform="translate(96,52)"/>
<path d="M0 0 C0.70125 0.4125 1.4025 0.825 2.125 1.25 C1.795 1.91 1.465 2.57 1.125 3.25 C-1.4375 3.875 -1.4375 3.875 -3.875 4.25 C-3.875 4.91 -3.875 5.57 -3.875 6.25 C-2.555 6.25 -1.235 6.25 0.125 6.25 C0.125 6.91 0.125 7.57 0.125 8.25 C0.455 8.25 0.785 8.25 1.125 8.25 C1.455 7.26 1.785 6.27 2.125 5.25 C0.475 5.25 -1.175 5.25 -2.875 5.25 C-2.875 4.92 -2.875 4.59 -2.875 4.25 C2.42594216 2.44695845 7.72808488 0.74276376 13.125 -0.75 C12.135 2.55 11.145 5.85 10.125 9.25 C9.465 9.25 8.805 9.25 8.125 9.25 C7.795 10.24 7.465 11.23 7.125 12.25 C2.175 12.25 -2.775 12.25 -7.875 12.25 C-7.875 12.91 -7.875 13.57 -7.875 14.25 C-3.585 14.25 0.705 14.25 5.125 14.25 C5.125 14.91 5.125 15.57 5.125 16.25 C4.465 16.25 3.805 16.25 3.125 16.25 C2.75375 17.0853125 2.75375 17.0853125 2.375 17.9375 C-0.85052985 23.90473022 -5.44022183 27.41135814 -10.875 31.25 C-11.535 30.92 -12.195 30.59 -12.875 30.25 C-12.545 29.610625 -12.215 28.97125 -11.875 28.3125 C-10.93058635 25.42023321 -10.79549016 23.72664947 -10.875 20.75 C-10.97308465 17.04730463 -10.38986745 14.65845177 -8.875 11.25 C-8.70812552 8.66645782 -8.70812552 8.66645782 -8.875 6.25 C-8.875 5.26 -8.875 4.27 -8.875 3.25 C-3.91197024 -1.02051398 -3.91197024 -1.02051398 0 0 Z " fill="#F1C3BF" transform="translate(78.875,71.75)"/>
<path d="M0 0 C4.69563418 -0.02488717 9.39122919 -0.04294796 14.08691406 -0.05493164 C15.68132192 -0.05993231 17.27572525 -0.06673501 18.87011719 -0.07543945 C21.17383954 -0.0876933 23.47750078 -0.0932711 25.78125 -0.09765625 C26.48366821 -0.10281754 27.18608643 -0.10797882 27.90979004 -0.11329651 C32.68720941 -0.11382708 37.26878694 0.32974482 42 1 C41.67 1.66 41.34 2.32 41 3 C37.04 3 33.08 3 29 3 C28.67 3.66 28.34 4.32 28 5 C28.61488281 4.90460937 29.22976562 4.80921875 29.86328125 4.7109375 C30.67152344 4.60007812 31.47976562 4.48921875 32.3125 4.375 C33.51326172 4.20097656 33.51326172 4.20097656 34.73828125 4.0234375 C37 4 37 4 40 6 C39.18917969 6.5259375 38.37835938 7.051875 37.54296875 7.59375 C34.73524178 9.79030734 34.73524178 9.79030734 34.36328125 13.09375 C34.34652344 14.2178125 34.32976562 15.341875 34.3125 16.5 C34.16022641 23.48855627 34.16022641 23.48855627 32 27 C31.34 27 30.68 27 30 27 C30.165 26.319375 30.33 25.63875 30.5 24.9375 C31.48957449 19.12374985 31.14629078 14.49987013 29 9 C28.34 9 27.68 9 27 9 C26.01 8.67 25.02 8.34 24 8 C24 7.01 24 6.02 24 5 C23.34 5 22.68 5 22 5 C21.67 5.99 21.34 6.98 21 8 C19.68 7.67 18.36 7.34 17 7 C17 7.66 17 8.32 17 9 C15.35 8.67 13.7 8.34 12 8 C12.33 9.32 12.66 10.64 13 12 C12.01 11.67 11.02 11.34 10 11 C10 10.34 10 9.68 10 9 C9.38125 8.731875 8.7625 8.46375 8.125 8.1875 C6 7 6 7 4 4 C7.3 4 10.6 4 14 4 C12.91447634 2.68737429 12.91447634 2.68737429 10.27734375 2.90234375 C9.17519531 2.91394531 8.07304688 2.92554688 6.9375 2.9375 C5.83277344 2.94652344 4.72804688 2.95554688 3.58984375 2.96484375 C2.73519531 2.97644531 1.88054688 2.98804688 1 3 C0.67 2.01 0.34 1.02 0 0 Z " fill="#6652A5" transform="translate(44,43)"/>
<path d="M0 0 C0.391875 0.556875 0.78375 1.11375 1.1875 1.6875 C5.28991264 6.9257184 5.28991264 6.9257184 11 10 C10.690625 11.546875 10.690625 11.546875 10.375 13.125 C9.97654384 17.24238033 10.66933833 19.16456342 12 23 C12 24.94412205 11.99763746 26.88883954 11.9375 28.83203125 C12.04781919 32.65872805 13.04285626 36.30815985 14 40 C9.11274326 37.82707297 5.59730649 35.17297481 1.75 31.5625 C1.22148438 31.08490234 0.69296875 30.60730469 0.1484375 30.11523438 C-2.53972649 27.62834154 -4.66479087 25.44386258 -6 22 C-3.69 22 -1.38 22 1 22 C1 22.99 1 23.98 1 25 C1.99 25 2.98 25 4 25 C3.81824219 24.07719238 3.81824219 24.07719238 3.6328125 23.13574219 C3.08466405 20.34123922 2.54227517 17.54564835 2 14.75 C1.71382812 13.29787109 1.71382812 13.29787109 1.421875 11.81640625 C1.24140625 10.88183594 1.0609375 9.94726562 0.875 8.984375 C0.70742188 8.12553711 0.53984375 7.26669922 0.3671875 6.38183594 C0 4 0 4 0 0 Z " fill="#F6F3F7" transform="translate(50,65)"/>
<path d="M0 0 C0.92619141 0.2165625 0.92619141 0.2165625 1.87109375 0.4375 C10.67729655 2.36762664 17.32266906 2.57106102 26 0 C28.33215844 -0.07403678 30.66860788 -0.09515886 33 0 C33.495 0.99 33.495 0.99 34 2 C33.01 2.99 32.02 3.98 31 5 C32.98 5.33 34.96 5.66 37 6 C37 6.33 37 6.66 37 7 C35.84371094 7.09087891 35.84371094 7.09087891 34.6640625 7.18359375 C33.66117188 7.26738281 32.65828125 7.35117187 31.625 7.4375 C30.12839844 7.55931641 30.12839844 7.55931641 28.6015625 7.68359375 C26.02072387 7.84965626 26.02072387 7.84965626 24 9 C22.46261983 9.03707363 20.92351396 9.01335823 19.38671875 8.95703125 C18.46826172 8.93576172 17.54980469 8.91449219 16.60351562 8.89257812 C14.67085611 8.83950442 12.73848389 8.77453936 10.80664062 8.69726562 C5.00615049 8.56257882 5.00615049 8.56257882 -0.16796875 11.01171875 C-1.07482422 11.99591797 -1.07482422 11.99591797 -2 13 C-1.34 11.02 -0.68 9.04 0 7 C-1.98 7.99 -1.98 7.99 -4 9 C-4 5.00095031 -2.27413033 3.19799578 0 0 Z " fill="#E04621" transform="translate(34,22)"/>
<path d="M0 0 C2.75310894 0.24606803 5.39294337 0.22420646 8.15429688 0.12255859 C9.0953125 0.09226562 10.03632812 0.06197266 11.00585938 0.03076172 C12.94415686 -0.04146481 14.8818234 -0.13293874 16.81835938 -0.24267578 C23.73198794 -0.41884951 23.73198794 -0.41884951 26.421875 1.5234375 C28.26323232 3.65420646 29.63867188 5.34378348 29.63867188 8.23583984 C27.48645186 7.77464984 25.73529696 7.29002406 23.80664062 6.20849609 C21.26481708 5.06811039 19.47560241 5.0013156 16.70117188 5.04833984 C15.82203125 5.06251953 14.94289062 5.07669922 14.03710938 5.09130859 C11.55028524 5.17785066 11.55028524 5.17785066 8.82617188 5.86083984 C5.91837385 6.35931951 4.35020866 5.33336664 1.63867188 4.23583984 C-1.96981967 3.97809045 -4.56569657 3.90594383 -7.92382812 5.29833984 C-11.12374038 6.52907533 -13.00868216 5.88057945 -16.36132812 5.23583984 C-17.90106561 5.13658847 -19.44364589 5.0761587 -20.98632812 5.04833984 C-21.72109375 5.03416016 -22.45585938 5.01998047 -23.21289062 5.00537109 C-25.64229461 5.26597989 -27.20859764 6.12344564 -29.36132812 7.23583984 C-31.61132812 6.86083984 -31.61132812 6.86083984 -33.36132812 6.23583984 C-32.20959457 3.76783938 -31.31349247 2.18800419 -29.36132812 0.23583984 C-27.23828125 0.0246582 -27.23828125 0.0246582 -24.64257812 0.07568359 C-23.71058594 0.08664063 -22.77859375 0.09759766 -21.81835938 0.10888672 C-20.35462891 0.14079102 -20.35462891 0.14079102 -18.86132812 0.17333984 C-16.93431851 0.20770527 -15.00722779 0.23786143 -13.08007812 0.26318359 C-12.22349609 0.2811499 -11.36691406 0.29911621 -10.484375 0.31762695 C-0.52466394 -0.06605557 -0.52466394 -0.06605557 0 0 Z " fill="#FBF8F9" transform="translate(66.361328125,29.76416015625)"/>
<path d="M0 0 C0.33 0 0.66 0 1 0 C0.96519531 0.680625 0.93039063 1.36125 0.89453125 2.0625 C0.69698868 9.13640526 1.47221595 15.59132141 2.93286133 22.47851562 C3.68373266 26.051289 4.1689498 29.34646058 4 33 C3.01 33 2.02 33 1 33 C1 32.01 1 31.02 1 30 C-0.258125 30.103125 -1.51625 30.20625 -2.8125 30.3125 C-6.70129004 30.29870996 -6.70129004 30.29870996 -9.0625 27.9375 C-10.23956177 24.24937313 -9.86351092 21.74188064 -9 18 C-8.67 17.67 -8.34 17.34 -8 17 C-7.76807135 15.48530552 -7.58784762 13.96245438 -7.4375 12.4375 C-7.35371094 11.61121094 -7.26992188 10.78492187 -7.18359375 9.93359375 C-7.12300781 9.29550781 -7.06242187 8.65742187 -7 8 C-6.34 8 -5.68 8 -5 8 C-5 8.66 -5 9.32 -5 10 C-4.34 10 -3.68 10 -3 10 C-3 10.66 -3 11.32 -3 12 C-3.99 12.495 -3.99 12.495 -5 13 C-4.01 13 -3.02 13 -2 13 C-2 11.02 -2 9.04 -2 7 C-1.34 7 -0.68 7 0 7 C0 4.69 0 2.38 0 0 Z " fill="#6A5DAE" transform="translate(50,57)"/>
<path d="M0 0 C0.66 0.66 1.32 1.32 2 2 C1.875 4 1.875 4 1 6 C-1.0625 7.25 -1.0625 7.25 -3 8 C-3 8.66 -3 9.32 -3 10 C-5.5614657 12.29648649 -6.47967572 13 -10 13 C-10.66 14.98 -11.32 16.96 -12 19 C-16.02079712 20.17681867 -17.71420139 20.12318906 -21.625 18.4375 C-25.08470776 16.2281966 -27.06334337 13.64091447 -29 10 C-29 9.01 -29 8.02 -29 7 C-29.928125 6.7834375 -29.928125 6.7834375 -30.875 6.5625 C-33 6 -33 6 -35 5 C-35 4.01 -35 3.02 -35 2 C-34.01 1.67 -33.02 1.34 -32 1 C-31.26394531 1.69867188 -30.52789062 2.39734375 -29.76953125 3.1171875 C-28.78420049 4.03682954 -27.79850394 4.95607976 -26.8125 5.875 C-26.32974609 6.33519531 -25.84699219 6.79539062 -25.34960938 7.26953125 C-22.43132572 9.97237114 -19.89669939 12.0291052 -16 13 C-12.93942994 11.40521237 -12.93942994 11.40521237 -10 9 C-8.453125 8.0409375 -8.453125 8.0409375 -6.875 7.0625 C-3.96849651 4.97739967 -2.08459148 2.88635744 0 0 Z " fill="#DD2F1D" transform="translate(80,91)"/>
<path d="M0 0 C0 0.66 0 1.32 0 2 C-4.25453104 6.24600492 -8.58833447 9.65176381 -14.625 10.5234375 C-17.78691694 10.50263541 -20.85958043 10.35947569 -24 10 C-23.67 9.01 -23.34 8.02 -23 7 C-18.38 7 -13.76 7 -9 7 C-9 6.34 -9 5.68 -9 5 C-14.94 4.67 -20.88 4.34 -27 4 C-26.34 3.67 -25.68 3.34 -25 3 C-24.731875 2.195625 -24.46375 1.39125 -24.1875 0.5625 C-23 -2 -23 -2 -21 -3.3125 C-12.88246193 -5.17276914 -7.12480409 -4.22210613 0 0 Z " fill="#7669B4" transform="translate(96,38)"/>
<path d="M0 0 C-0.66 0.66 -1.32 1.32 -2 2 C-1.67958603 4.60280568 -1.67958603 4.60280568 -1 7 C-3.74951693 7.22212255 -6.49865612 7.42815588 -9.25 7.625 C-10.02730469 7.68945312 -10.80460937 7.75390625 -11.60546875 7.8203125 C-18.69786681 8.30526279 -18.69786681 8.30526279 -22 6 C-23.0725 5.29875 -24.145 4.5975 -25.25 3.875 C-26.1575 3.25625 -27.065 2.6375 -28 2 C-27.34 1.34 -26.68 0.68 -26 0 C-25.38125 0.165 -24.7625 0.33 -24.125 0.5 C-21.98296325 1.24590871 -21.98296325 1.24590871 -20.12890625 0.04296875 C-14.33456251 -2.79572809 -6.16431356 -0.78276998 0 0 Z " fill="#968CC5" transform="translate(59,35)"/>
<path d="M0 0 C0.33 0 0.66 0 1 0 C1.185625 0.94875 1.37125 1.8975 1.5625 2.875 C2.73400805 6.38371699 2.73400805 6.38371699 6.625 7.375 C7.73875 7.58125 8.8525 7.7875 10 8 C9.01 8.495 9.01 8.495 8 9 C8.79117904 10.99983534 8.79117904 10.99983534 10 13 C10.99 13.33 11.98 13.66 13 14 C13 12.02 13 10.04 13 8 C15.31 7.34 17.62 6.68 20 6 C19.67 9.3 19.34 12.6 19 16 C17.35 16.66 15.7 17.32 14 18 C14 17.34 14 16.68 14 16 C13.01 16 12.02 16 11 16 C11 16.99 11 17.98 11 19 C10.34 19 9.68 19 9 19 C9 18.01 9 17.02 9 16 C8.34 16 7.68 16 7 16 C7 16.66 7 17.32 7 18 C6.01 17.67 5.02 17.34 4 17 C4.33 16.01 4.66 15.02 5 14 C4.34 14 3.68 14 3 14 C2.67 14.66 2.34 15.32 2 16 C-0.27141454 10.60539047 -0.20413361 5.73842251 0 0 Z " fill="#DB3726" transform="translate(55,56)"/>
<path d="M0 0 C0.33 0.99 0.66 1.98 1 3 C5.29 3 9.58 3 14 3 C14 3.66 14 4.32 14 5 C13.34 5 12.68 5 12 5 C11.7525 5.556875 11.505 6.11375 11.25 6.6875 C8.02447015 12.65473022 3.43477817 16.16135814 -2 20 C-2.66 19.67 -3.32 19.34 -4 19 C-3.67 18.360625 -3.34 17.72125 -3 17.0625 C-2.05558635 14.17023321 -1.92049016 12.47664947 -2 9.5 C-2.09715283 5.86284093 -1.69962321 3.29301996 0 0 Z " fill="#F9F0F1" transform="translate(70,83)"/>
<path d="M0 0 C0.33 0 0.66 0 1 0 C1 1.98 1 3.96 1 6 C1.66 6 2.32 6 3 6 C3.66 7.98 4.32 9.96 5 12 C4.01 12.495 4.01 12.495 3 13 C2.443125 14.7325 2.443125 14.7325 1.875 16.5 C1.25625 17.655 0.6375 18.81 0 20 C-3.75 20.75 -3.75 20.75 -5.86328125 20.84375 C-9.46380892 21.1070427 -11.86250088 22.20714336 -15 24 C-16.05167527 26.57732914 -16.05167527 26.57732914 -16 29 C-17.875 29.625 -17.875 29.625 -20 30 C-20.66 29.34 -21.32 28.68 -22 28 C-20.35 28 -18.7 28 -17 28 C-17.639375 27.731875 -18.27875 27.46375 -18.9375 27.1875 C-21 26 -21 26 -22 23 C-20.824375 22.731875 -19.64875 22.46375 -18.4375 22.1875 C-15.54456378 21.47452458 -12.90295495 20.59927563 -10.1875 19.375 C-7 18 -7 18 -4 18 C-1.82971933 14.38894478 -1.41193503 10.89207026 -0.875 6.75 C-0.70742187 5.48671875 -0.53984375 4.2234375 -0.3671875 2.921875 C-0.24601562 1.95765625 -0.12484375 0.9934375 0 0 Z " fill="#E87D49" transform="translate(96,52)"/>
<path d="M0 0 C4.69563418 -0.02488717 9.39122919 -0.04294796 14.08691406 -0.05493164 C15.68132192 -0.05993231 17.27572525 -0.06673501 18.87011719 -0.07543945 C21.17383954 -0.0876933 23.47750078 -0.0932711 25.78125 -0.09765625 C26.48366821 -0.10281754 27.18608643 -0.10797882 27.90979004 -0.11329651 C32.68720941 -0.11382708 37.26878694 0.32974482 42 1 C41.67 1.66 41.34 2.32 41 3 C40.14535156 2.98839844 39.29070312 2.97679687 38.41015625 2.96484375 C36.75306641 2.95130859 36.75306641 2.95130859 35.0625 2.9375 C33.40927734 2.92009766 33.40927734 2.92009766 31.72265625 2.90234375 C29.08552366 2.68737429 29.08552366 2.68737429 28 4 C25.66839945 4.09909302 23.33370058 4.12970504 21 4.125 C19.72125 4.12757812 18.4425 4.13015625 17.125 4.1328125 C14 4 14 4 13 3 C10.98035801 2.92755947 8.95832876 2.91622812 6.9375 2.9375 C5.83277344 2.94652344 4.72804688 2.95554688 3.58984375 2.96484375 C2.73519531 2.97644531 1.88054688 2.98804688 1 3 C0.67 2.01 0.34 1.02 0 0 Z " fill="#D4BDCF" transform="translate(44,43)"/>
<path d="M0 0 C-0.57584432 2.38564077 -1.22227595 4.66682784 -2 7 C-2.20421838 9.83636639 -2.37199947 12.6602846 -2.5 15.5 C-2.86486486 23.59459459 -2.86486486 23.59459459 -4 27 C-4.99 26.67 -5.98 26.34 -7 26 C-7 22.04 -7 18.08 -7 14 C-6.34 14 -5.68 14 -5 14 C-5 13.34 -5 12.68 -5 12 C-5.99 11.67 -6.98 11.34 -8 11 C-8.8125 8.8125 -8.8125 8.8125 -9 6 C-3.95454545 0 -3.95454545 0 0 0 Z " fill="#E8701A" transform="translate(34,29)"/>
<path d="M0 0 C4.75 1.875 4.75 1.875 7 3 C7 4.98 7 6.96 7 9 C5.35 9.33 3.7 9.66 2 10 C2 11.65 2 13.3 2 15 C-0.86724686 14.42655063 -1.8614515 14.1385485 -4 12 C-4.1953125 9.6171875 -4.1953125 9.6171875 -4.125 6.875 C-4.10695312 5.96492188 -4.08890625 5.05484375 -4.0703125 4.1171875 C-4.04710937 3.41851562 -4.02390625 2.71984375 -4 2 C-1.525 2.495 -1.525 2.495 1 3 C0.67 2.01 0.34 1.02 0 0 Z " fill="#DE3E1F" transform="translate(60,49)"/>
<path d="M0 0 C3.86114956 1.46457397 5.07990881 3.42164824 7 7 C7.99 8.485 7.99 8.485 9 10 C9.66 10 10.32 10 11 10 C11 10.66 11 11.32 11 12 C10.34 12 9.68 12 9 12 C9 12.99 9 13.98 9 15 C9.94875 15.20625 10.8975 15.4125 11.875 15.625 C15 17 15 17 16.375 20.125 C16.58125 21.07375 16.7875 22.0225 17 23 C13.66564695 21.58143752 11.80434174 19.90068437 9.5 17.125 C7.63706878 14.91575465 5.8240943 12.82898057 3.75 10.8125 C1.68608596 8.67487474 0.27622937 6.68679867 -1 4 C-0.6875 1.6875 -0.6875 1.6875 0 0 Z " fill="#DE341C" transform="translate(36,81)"/>
<path d="M0 0 C0 2.64 0 5.28 0 8 C0.66 8.33 1.32 8.66 2 9 C0.68 9.33 -0.64 9.66 -2 10 C-2.33 11.65 -2.66 13.3 -3 15 C-6.80999969 12.46000021 -7.46118745 10.25005372 -9 6 C-9 4.68 -9 3.36 -9 2 C-5.86501708 0.14223235 -3.62528568 -0.20140476 0 0 Z " fill="#B9ACD1" transform="translate(43,65)"/>
<path d="M0 0 C3.125 1.5 3.125 1.5 5 3 C4.67 4.32 4.34 5.64 4 7 C2.68 7 1.36 7 0 7 C-0.33 5.68 -0.66 4.36 -1 3 C-1 4.32 -1 5.64 -1 7 C-3.97 7 -6.94 7 -10 7 C-10.66666667 5 -11.33333333 3 -12 1 C-8.32349261 -0.8382537 -4.02203801 -0.37884188 0 0 Z " fill="#9E95C9" transform="translate(88,34)"/>
<path d="M0 0 C7.92 0 15.84 0 24 0 C24 3 24 3 23 5 C22.01 4.67 21.02 4.34 20 4 C20 3.01 20 2.02 20 1 C19.34 1 18.68 1 18 1 C17.67 1.99 17.34 2.98 17 4 C15.68 3.67 14.36 3.34 13 3 C13 3.66 13 4.32 13 5 C11.35 4.67 9.7 4.34 8 4 C8.33 5.32 8.66 6.64 9 8 C8.01 7.67 7.02 7.34 6 7 C6 6.34 6 5.68 6 5 C5.38125 4.731875 4.7625 4.46375 4.125 4.1875 C2 3 2 3 0 0 Z " fill="#AA8CB5" transform="translate(48,47)"/>
<path d="M0 0 C1.32 0 2.64 0 4 0 C3.3836103 4.00653305 1.41427274 6.80463901 -1 10 C-1.99 10.33 -2.98 10.66 -4 11 C-4.66 10.34 -5.32 9.68 -6 9 C-5.67 8.34 -5.34 7.68 -5 7 C-4.34 7 -3.68 7 -3 7 C-3 6.34 -3 5.68 -3 5 C-7.29 5 -11.58 5 -16 5 C-16 4.34 -16 3.68 -16 3 C-14.92878906 2.95101562 -13.85757813 2.90203125 -12.75390625 2.8515625 C-11.35674361 2.77654706 -9.9596095 2.7009987 -8.5625 2.625 C-7.85544922 2.5940625 -7.14839844 2.563125 -6.41992188 2.53125 C-4.60760812 2.42719371 -2.80182012 2.22080108 -1 2 C-0.67 1.34 -0.34 0.68 0 0 Z " fill="#E88342" transform="translate(87,81)"/>
<path d="M0 0 C0.66 0 1.32 0 2 0 C3.80304155 5.30094216 5.50723624 10.60308488 7 16 C7.75667969 15.91234375 8.51335938 15.8246875 9.29296875 15.734375 C12 16 12 16 13.80078125 17.828125 C14.29964844 18.62734375 14.79851563 19.4265625 15.3125 20.25 C15.82425781 21.03890625 16.33601563 21.8278125 16.86328125 22.640625 C18 25 18 25 18 29 C15.92046932 26.49022159 14.03535439 24.05983051 12.375 21.25 C11.1987496 18.87854191 11.1987496 18.87854191 9 18 C8.67 19.32 8.34 20.64 8 22 C3.9566842 15.79062217 0 7.5286386 0 0 Z " fill="#DD4228" transform="translate(27,63)"/>
<path d="M0 0 C0.33 0.66 0.66 1.32 1 2 C0.01 2.495 0.01 2.495 -1 3 C-1.4125 3.70125 -1.825 4.4025 -2.25 5.125 C-6.74315886 12.50661813 -12.91358087 18.09303711 -20 23 C-20.66 23 -21.32 23 -22 23 C-21.8125 21.1875 -21.8125 21.1875 -21 19 C-16.82142857 16 -16.82142857 16 -14 16 C-14 15.34 -14 14.68 -14 14 C-13.34 13.566875 -12.68 13.13375 -12 12.6875 C-9.69657929 11.14416344 -9.69657929 11.14416344 -9.75 8.3125 C-9.87375 7.1678125 -9.87375 7.1678125 -10 6 C-8.9171875 5.9071875 -8.9171875 5.9071875 -7.8125 5.8125 C-4.15342375 4.75543353 -2.50788398 2.79449929 0 0 Z " fill="#DD301B" transform="translate(91,85)"/>
<path d="M0 0 C-0.33 3.3 -0.66 6.6 -1 10 C-2.65 10.66 -4.3 11.32 -6 12 C-7.60725635 8.78548731 -7.05748185 5.56387464 -7 2 C-2.25 0 -2.25 0 0 0 Z " fill="#DB3F32" transform="translate(75,62)"/>
<path d="M0 0 C2.25 0.2109375 2.25 0.2109375 3.83203125 1.453125 C7.25 5.98871528 7.25 5.98871528 7.25 8.2109375 C5.11608974 7.75367102 3.35639437 7.26963784 1.4375 6.2109375 C-1.55262498 4.84402322 -4.50324449 4.58556314 -7.75 4.2109375 C-7.75 3.8809375 -7.75 3.5509375 -7.75 3.2109375 C-10.39 2.8809375 -13.03 2.5509375 -15.75 2.2109375 C-15.75 1.8809375 -15.75 1.5509375 -15.75 1.2109375 C-13.68769732 1.0418468 -11.6251477 0.87576617 -9.5625 0.7109375 C-7.83966797 0.57171875 -7.83966797 0.57171875 -6.08203125 0.4296875 C-4.05400004 0.29654594 -2.02644429 0.15543749 0 0 Z " fill="#F6E5E6" transform="translate(88.75,29.7890625)"/>
<path d="M0 0 C0.75732422 0.05478516 1.51464844 0.10957031 2.29492188 0.16601562 C3.08060547 0.23884766 3.86628906 0.31167969 4.67578125 0.38671875 C5.47306641 0.44794922 6.27035156 0.50917969 7.09179688 0.57226562 C9.05845078 0.72535844 11.02357114 0.89792584 12.98828125 1.07421875 C12.98828125 1.40421875 12.98828125 1.73421875 12.98828125 2.07421875 C11.00828125 2.40421875 9.02828125 2.73421875 6.98828125 3.07421875 C6.98828125 3.40421875 6.98828125 3.73421875 6.98828125 4.07421875 C-2.42174153 6.18583606 -2.42174153 6.18583606 -7.01171875 7.07421875 C-7.01171875 3.07421875 -7.01171875 3.07421875 -5.76245117 1.32885742 C-3.60157588 -0.21970458 -2.62181467 -0.21684181 0 0 Z " fill="#F7E6E7" transform="translate(41.01171875,29.92578125)"/>
<path d="M0 0 C2.19619559 1.01966224 3.9444798 1.95027858 5.7578125 3.57421875 C8.72627502 5.46182994 10.64797413 5.20503347 14.125 5 C17.3203125 4.8125 17.3203125 4.8125 20 5 C20.99 6.485 20.99 6.485 22 8 C18.7 8 15.4 8 12 8 C12.99 8.99 13.98 9.98 15 11 C14.67 11.66 14.34 12.32 14 13 C11.66270866 11.02546836 9.33085338 9.04462531 7 7.0625 C6.33226562 6.49853516 5.66453125 5.93457031 4.9765625 5.35351562 C4.34492187 4.81533203 3.71328125 4.27714844 3.0625 3.72265625 C2.47597656 3.22515869 1.88945313 2.72766113 1.28515625 2.21508789 C0.86105469 1.81410889 0.43695313 1.41312988 0 1 C0 0.67 0 0.34 0 0 Z " fill="#6952A2" transform="translate(37,40)"/>
<path d="M0 0 C1.27609323 0.90933009 2.54565553 1.82782853 3.8125 2.75 C4.87404297 3.51570313 4.87404297 3.51570313 5.95703125 4.296875 C8.02977691 6.02482358 9.47375854 7.78526476 11 10 C10.67 10.66 10.34 11.32 10 12 C7.13275314 11.42655063 6.1385485 11.1385485 4 9 C4 8.01 4 7.02 4 6 C3.071875 5.7834375 3.071875 5.7834375 2.125 5.5625 C0 5 0 5 -2 4 C-2 3.01 -2 2.02 -2 1 C-1.34 0.67 -0.68 0.34 0 0 Z " fill="#E97A24" transform="translate(47,92)"/>
<path d="M0 0 C0 1.32 0 2.64 0 4 C-5.28 4 -10.56 4 -16 4 C-16 3.01 -16 2.02 -16 1 C-10.62915894 0.31798844 -5.41499441 -0.11521265 0 0 Z " fill="#E7857C" transform="translate(78,115)"/>
<path d="M0 0 C1.65 0.33 3.3 0.66 5 1 C4.85892253 2.45880109 4.71197585 3.91703551 4.5625 5.375 C4.48128906 6.18710938 4.40007812 6.99921875 4.31640625 7.8359375 C4 10 4 10 3 12 C2.34 12 1.68 12 1 12 C-0.80619523 7.53763531 -1.11658501 4.68965706 0 0 Z " fill="#EED31F" transform="translate(63,89)"/>
<path d="M0 0 C5.41499441 -0.11521265 10.62915894 0.31798844 16 1 C15.34 1.66 14.68 2.32 14 3 C14.32041397 5.60280568 14.32041397 5.60280568 15 8 C13.35 8 11.7 8 10 8 C10 6.68 10 5.36 10 4 C9.36191406 3.87882812 8.72382812 3.75765625 8.06640625 3.6328125 C7.24011719 3.46523438 6.41382813 3.29765625 5.5625 3.125 C4.73878906 2.96257813 3.91507813 2.80015625 3.06640625 2.6328125 C2.38449219 2.42398438 1.70257813 2.21515625 1 2 C0.67 1.34 0.34 0.68 0 0 Z " fill="#8F85C2" transform="translate(43,34)"/>
<path d="M0 0 C3.0625 0.1875 3.0625 0.1875 5.0625 2.1875 C4.6875 4.3125 4.6875 4.3125 4.0625 6.1875 C-2.6875 6.3125 -2.6875 6.3125 -4.9375 5.1875 C-3.82120474 0.24390669 -3.82120474 0.24390669 0 0 Z " fill="#EDD220" transform="translate(64.9375,76.8125)"/>
<path d="M0 0 C6.6 0 13.2 0 20 0 C17 3 17 3 13.75 3.3984375 C12.5125 3.39070313 11.275 3.38296875 10 3.375 C8.7625 3.38273437 7.525 3.39046875 6.25 3.3984375 C3 3 3 3 0 0 Z " fill="#F4F0F6" transform="translate(55,44)"/>
<path d="M0 0 C0.33 0 0.66 0 1 0 C1.02701408 2.10409639 1.04640223 4.20829178 1.0625 6.3125 C1.07410156 7.48425781 1.08570313 8.65601563 1.09765625 9.86328125 C1 13 1 13 0 16 C-0.99 15.67 -1.98 15.34 -3 15 C-3 11.04 -3 7.08 -3 3 C-2.34 3 -1.68 3 -1 3 C-0.67 2.01 -0.34 1.02 0 0 Z " fill="#EC8B27" transform="translate(30,40)"/>
<path d="M0 0 C0.66 0 1.32 0 2 0 C2 0.66 2 1.32 2 2 C2.66 2 3.32 2 4 2 C5.32 5.3 6.64 8.6 8 12 C6.68 12.33 5.36 12.66 4 13 C3.32404685 11.58774074 2.65959941 10.16997095 2 8.75 C1.62875 7.96109375 1.2575 7.1721875 0.875 6.359375 C0 4 0 4 0 0 Z " fill="#EC8D1C" transform="translate(30,66)"/>
<path d="M0 0 C2.97 0 5.94 0 9 0 C9 1.98 9 3.96 9 6 C5.37 6 1.74 6 -2 6 C-0.68 5.67 0.64 5.34 2 5 C2 3.68 2 2.36 2 1 C1.34 0.67 0.68 0.34 0 0 Z " fill="#968CC5" transform="translate(60,36)"/>
<path d="M0 0 C1.9375 0.75 1.9375 0.75 4 2 C4.75 4.125 4.75 4.125 5 6 C4.01 5.67 3.02 5.34 2 5 C2.33 9.29 2.66 13.58 3 18 C2.01 17.67 1.02 17.34 0 17 C-0.77313045 11.0885256 -1.14819277 5.8685408 0 0 Z " fill="#DD301B" transform="translate(25,38)"/>
<path d="M0 0 C0.66 0.66 1.32 1.32 2 2 C1.875 4 1.875 4 1 6 C-1.0625 7.25 -1.0625 7.25 -3 8 C-3 8.66 -3 9.32 -3 10 C-3.99 10.66 -4.98 11.32 -6 12 C-6.99 11.67 -7.98 11.34 -9 11 C-8.2575 10.113125 -7.515 9.22625 -6.75 8.3125 C-4.46359384 5.5701154 -2.22048625 2.79616787 0 0 Z " fill="#ED8F22" transform="translate(80,91)"/>
<path d="M0 0 C0.66 0 1.32 0 2 0 C2 0.66 2 1.32 2 2 C2.66 2 3.32 2 4 2 C4 2.66 4 3.32 4 4 C3.01 4.495 3.01 4.495 2 5 C3.2375 5.680625 3.2375 5.680625 4.5 6.375 C5.325 6.91125 6.15 7.4475 7 8 C7 8.66 7 9.32 7 10 C4.625 10.625 4.625 10.625 2 11 C1.34 10.34 0.68 9.68 0 9 C-0.33 9 -0.66 9 -1 9 C-0.67 6.03 -0.34 3.06 0 0 Z " fill="#8277BB" transform="translate(43,65)"/>
<path d="M0 0 C0.33 0.66 0.66 1.32 1 2 C0.06421005 4.35981813 -0.93347808 6.69631264 -2 9 C-2.66 9 -3.32 9 -4 9 C-4 7.68 -4 6.36 -4 5 C-5.65 5.66 -7.3 6.32 -9 7 C-8.75390625 5.109375 -8.75390625 5.109375 -8 3 C-6.15234375 1.953125 -6.15234375 1.953125 -3.9375 1.25 C-2.83728516 0.88648437 -2.83728516 0.88648437 -1.71484375 0.515625 C-1.14894531 0.34546875 -0.58304688 0.1753125 0 0 Z " fill="#FCF2F2" transform="translate(91,71)"/>
<path d="M0 0 C0.66 0 1.32 0 2 0 C2 0.66 2 1.32 2 2 C2.66 2 3.32 2 4 2 C5.22485812 4.44971624 5.16722808 6.14234461 5.1875 8.875 C5.20167969 9.73867188 5.21585937 10.60234375 5.23046875 11.4921875 C4.98859252 14.1241288 4.32983541 15.73980544 3 18 C2.34 18 1.68 18 1 18 C1.165 17.319375 1.33 16.63875 1.5 15.9375 C2.48957449 10.12374985 2.14629078 5.49987013 0 0 Z " fill="#DACEE0" transform="translate(73,52)"/>
<path d="M0 0 C2.97851562 0.43945312 2.97851562 0.43945312 5.95703125 0.87890625 C8.2025342 1.13904799 8.2025342 1.13904799 11 0 C11 1.65 11 3.3 11 5 C7.17211056 6.27596315 5.63343017 5.62344752 2 4 C0.625 1.875 0.625 1.875 0 0 Z " fill="#ED9118" transform="translate(58,104)"/>
<path d="M0 0 C0.66 0 1.32 0 2 0 C2.06058594 0.75925781 2.12117188 1.51851562 2.18359375 2.30078125 C2.26738281 3.29464844 2.35117187 4.28851563 2.4375 5.3125 C2.55931641 6.79169922 2.55931641 6.79169922 2.68359375 8.30078125 C2.91812559 11.09375599 2.91812559 11.09375599 4 14 C3.01 14 2.02 14 1 14 C-1.61007735 10.08488397 -1.22006613 6.5480334 -1 2 C-0.67 1.34 -0.34 0.68 0 0 Z " fill="#EFDCE1" transform="translate(53,55)"/>
<path d="M0 0 C0.33 0.99 0.66 1.98 1 3 C-5.435 3.495 -5.435 3.495 -12 4 C-12 3.01 -12 2.02 -12 1 C-7.93631321 0.22596442 -4.13574827 -0.0984702 0 0 Z " fill="#E78A82" transform="translate(91,114)"/>
<path d="M0 0 C3.84478875 1.45836815 5.1822915 3.36458299 7 7 C7.6875 9.3125 7.6875 9.3125 8 11 C5 10 5 10 3 8 C2.278125 7.38125 1.55625 6.7625 0.8125 6.125 C0.214375 5.42375 -0.38375 4.7225 -1 4 C-0.75 1.75 -0.75 1.75 0 0 Z " fill="#ED9018" transform="translate(36,81)"/>
<path d="M0 0 C0.66 0 1.32 0 2 0 C2 0.66 2 1.32 2 2 C2.66 2 3.32 2 4 2 C3.67 2.66 3.34 3.32 3 4 C2.34 3.67 1.68 3.34 1 3 C0.475973 11.0100087 0.475973 11.0100087 4 18 C4.66 18.99 5.32 19.98 6 21 C4.1875 20.8125 4.1875 20.8125 2 20 C-0.81974081 16.22902133 -1.36682286 13.53623194 -1.25 8.875 C-1.23453125 7.84117188 -1.2190625 6.80734375 -1.203125 5.7421875 C-1 3 -1 3 0 0 Z " fill="#5B4CA6" transform="translate(52,52)"/>
<path d="M0 0 C0 0.66 0 1.32 0 2 C-4.17737474 3.59138085 -7.53160785 4.21278058 -12 4 C-12 2 -12 2 -10.5 0.3125 C-6.74670195 -1.65798148 -4.12026476 -0.75538187 0 0 Z " fill="#EB8119" transform="translate(62,25)"/>
<path d="M0 0 C0.99 0.33 1.98 0.66 3 1 C4.36884358 5.51718381 3.47075246 8.58774263 2 13 C1.34 13 0.68 13 0 13 C0 8.71 0 4.42 0 0 Z " fill="#EE9318" transform="translate(98,43)"/>
<path d="M0 0 C3.3 0.33 6.6 0.66 10 1 C10.33 1.99 10.66 2.98 11 4 C7.04 4 3.08 4 -1 4 C-0.67 2.68 -0.34 1.36 0 0 Z " fill="#E89088" transform="translate(50,115)"/>
<path d="M0 0 C1.11375 0.2475 1.11375 0.2475 2.25 0.5 C4.9942739 1.177297 4.9942739 1.177297 7.6875 0.4375 C8.8321875 0.2209375 8.8321875 0.2209375 10 0 C10.66 0.66 11.32 1.32 12 2 C11.625 4.125 11.625 4.125 11 6 C11 5.01 11 4.02 11 3 C7.535 4.485 7.535 4.485 4 6 C2.35 4.35 0.7 2.7 -1 1 C-0.67 0.67 -0.34 0.34 0 0 Z " fill="#8374B6" transform="translate(32,35)"/>
<path d="M0 0 C2.62834278 0 5.08186701 0.19789762 7.6875 0.5 C8.49574219 0.5928125 9.30398437 0.685625 10.13671875 0.78125 C10.75160156 0.8534375 11.36648437 0.925625 12 1 C12 1.99 12 2.98 12 4 C3.42857143 4.14285714 3.42857143 4.14285714 0 3 C0 2.01 0 1.02 0 0 Z " fill="#E88E86" transform="translate(36,114)"/>
<path d="M0 0 C0.66 0.33 1.32 0.66 2 1 C0.68 2.32 -0.64 3.64 -2 5 C-1.67 5.66 -1.34 6.32 -1 7 C-1.99 7 -2.98 7 -4 7 C-4.33 7.66 -4.66 8.32 -5 9 C-5 8.34 -5 7.68 -5 7 C-5.99 7.66 -6.98 8.32 -8 9 C-11.1875 8.625 -11.1875 8.625 -14 8 C-13.46375 7.9175 -12.9275 7.835 -12.375 7.75 C-7.69886203 6.27332485 -3.85324187 2.96403221 0 0 Z " fill="#E15735" transform="translate(74,97)"/>
<path d="M0 0 C0.33 0 0.66 0 1 0 C1.33 3.3 1.66 6.6 2 10 C1.01 10 0.02 10 -1 10 C-1 9.01 -1 8.02 -1 7 C-3.64 7 -6.28 7 -9 7 C-9 6.67 -9 6.34 -9 6 C-4.545 5.505 -4.545 5.505 0 5 C-0.33 3.68 -0.66 2.36 -1 1 C-0.67 0.67 -0.34 0.34 0 0 Z " fill="#7264B1" transform="translate(52,80)"/>
<path d="M0 0 C2.31 0 4.62 0 7 0 C7.33 1.32 7.66 2.64 8 4 C5.04335481 5.4783226 2.25770263 5.06032783 -1 5 C-0.34 4.01 0.32 3.02 1 2 C0.67 1.34 0.34 0.68 0 0 Z " fill="#C2BDDD" transform="translate(44,81)"/>
<path d="M0 0 C3.3 0 6.6 0 10 0 C10.33 0.99 10.66 1.98 11 3 C7.04 3 3.08 3 -1 3 C-0.67 2.01 -0.34 1.02 0 0 Z " fill="#DD4539" transform="translate(73,45)"/>
<path d="M0 0 C2.31 0.66 4.62 1.32 7 2 C7 3.65 7 5.3 7 7 C5.68 7 4.36 7 3 7 C3 5.68 3 4.36 3 3 C1.68 2.67 0.36 2.34 -1 2 C-0.67 1.34 -0.34 0.68 0 0 Z " fill="#A89FCE" transform="translate(41,34)"/>
<path d="M0 0 C0 0.99 0 1.98 0 3 C-7.625 4.25 -7.625 4.25 -11 2 C-7.17679443 0.57741188 -4.08718695 -0.24042276 0 0 Z " fill="#E97D30" transform="translate(77,27)"/>
<path d="M0 0 C2.97 0 5.94 0 9 0 C9 0.99 9 1.98 9 3 C6.03 3 3.06 3 0 3 C0 2.01 0 1.02 0 0 Z " fill="#E3E1F0" transform="translate(42,77)"/>
<path d="M0 0 C3.375 -0.125 3.375 -0.125 7 0 C7.66 0.66 8.32 1.32 9 2 C8.01 2.99 7.02 3.98 6 5 C2.83884224 3.63016497 2.0072908 3.0109362 0 0 Z " fill="#F2E3E7" transform="translate(48,47)"/>
<path d="M0 0 C0.99 0 1.98 0 3 0 C5.42857143 6.28571429 5.42857143 6.28571429 4 10 C3.608125 9.195625 3.21625 8.39125 2.8125 7.5625 C1.23051809 4.76935262 1.23051809 4.76935262 -1.6875 4.1875 C-2.8321875 4.0946875 -2.8321875 4.0946875 -4 4 C-2.68 3.67 -1.36 3.34 0 3 C0 2.01 0 1.02 0 0 Z " fill="#876EA5" transform="translate(66,72)"/>
<path d="M0 0 C1.12377697 3.30435084 0.89554742 5.0506862 -0.4375 8.25 C-0.72496094 8.95640625 -1.01242188 9.6628125 -1.30859375 10.390625 C-1.53675781 10.92171875 -1.76492187 11.4528125 -2 12 C-2.66 12 -3.32 12 -4 12 C-4 11.01 -4 10.02 -4 9 C-4.66 9 -5.32 9 -6 9 C-5.67 8.34 -5.34 7.68 -5 7 C-4.34 7 -3.68 7 -3 7 C-2.01 4.69 -1.02 2.38 0 0 Z " fill="#DD2D1B" transform="translate(99,64)"/>
<path d="M0 0 C1.62418745 -0.08090971 3.24951745 -0.13914995 4.875 -0.1875 C5.77992187 -0.22230469 6.68484375 -0.25710937 7.6171875 -0.29296875 C8.79667969 -0.14794922 8.79667969 -0.14794922 10 0 C10.66 0.99 11.32 1.98 12 3 C8.04 3 4.08 3 0 3 C0 2.01 0 1.02 0 0 Z " fill="#DD3D30" transform="translate(47,45)"/>
<path d="M0 0 C0.66 0 1.32 0 2 0 C2.50559908 1.43554025 3.0042749 2.8735202 3.5 4.3125 C3.7784375 5.11300781 4.056875 5.91351563 4.34375 6.73828125 C5 9 5 9 5 12 C2.2289312 9.65408148 1.47940716 7.85223799 0.8125 4.3125 C0.65394531 3.50425781 0.49539062 2.69601563 0.33203125 1.86328125 C0.22246094 1.24839844 0.11289062 0.63351563 0 0 Z " fill="#DD301C" transform="translate(27,63)"/>
<path d="M0 0 C2.0625 0.4375 2.0625 0.4375 4 1 C4 2.32 4 3.64 4 5 C2.35 5 0.7 5 -1 5 C-1 1 -1 1 0 0 Z " fill="#695CAD" transform="translate(54,37)"/>
<path d="M0 0 C1.32 0 2.64 0 4 0 C4.625 2.875 4.625 2.875 5 6 C4.34 6.66 3.68 7.32 3 8 C2.01 7.34 1.02 6.68 0 6 C0.99 5.67 1.98 5.34 3 5 C3 4.34 3 3.68 3 3 C2.34 3 1.68 3 1 3 C0.67 2.01 0.34 1.02 0 0 Z " fill="#BBB5DA" transform="translate(44,64)"/>
<path d="M0 0 C-0.66 1.32 -1.32 2.64 -2 4 C-4.4375 3.625 -4.4375 3.625 -7 3 C-7.33 2.34 -7.66 1.68 -8 1 C-5.07175348 0.02391783 -3.04386724 -0.08226668 0 0 Z " fill="#F1E7EC" transform="translate(81,47)"/>
<path d="M0 0 C2.475 0.99 2.475 0.99 5 2 C4.67 2.66 4.34 3.32 4 4 C2.34385343 4.38218767 0.67542976 4.71395102 -1 5 C-1.99 5.495 -1.99 5.495 -3 6 C-2.42655063 3.13275314 -2.1385485 2.1385485 0 0 Z " fill="#EAA6A1" transform="translate(76,71)"/>
<path d="M0 0 C1.32 1.32 2.64 2.64 4 4 C3.67 4.66 3.34 5.32 3 6 C0.525 5.01 0.525 5.01 -2 4 C-2 3.01 -2 2.02 -2 1 C-1.34 0.67 -0.68 0.34 0 0 Z " fill="#ED901F" transform="translate(47,92)"/>
<path d="M0 0 C0.66 0 1.32 0 2 0 C2 0.66 2 1.32 2 2 C2.66 2 3.32 2 4 2 C4 4 4 4 2.625 5.5 C2.08875 5.995 1.5525 6.49 1 7 C0.34 7.66 -0.32 8.32 -1 9 C-0.67 6.03 -0.34 3.06 0 0 Z " fill="#6456AB" transform="translate(43,65)"/>
<path d="M0 0 C0.66 0 1.32 0 2 0 C2 1.98 2 3.96 2 6 C0.68 6 -0.64 6 -2 6 C-1.125 1.125 -1.125 1.125 0 0 Z " fill="#F5BC17" transform="translate(65,52)"/>
<path d="M0 0 C2.31 0 4.62 0 7 0 C7 1.32 7 2.64 7 4 C5.68 4 4.36 4 3 4 C1.25 2 1.25 2 0 0 Z " fill="#E46C61" transform="translate(71,115)"/>
<path d="M0 0 C0.33 0 0.66 0 1 0 C1.28571429 7.42857143 1.28571429 7.42857143 -1 11 C-1.66 11 -2.32 11 -3 11 C-2.32829194 7.1936543 -1.27253436 3.64793184 0 0 Z " fill="#F5EFF3" transform="translate(77,59)"/>
<path d="M0 0 C1.65 0 3.3 0 5 0 C5 2 5 2 3.25 4.1875 C2.5075 4.785625 1.765 5.38375 1 6 C-1.25 5.75 -1.25 5.75 -3 5 C-2.01 4.34 -1.02 3.68 0 3 C0 2.01 0 1.02 0 0 Z " fill="#DD2D1A" transform="translate(77,25)"/>
<path d="M0 0 C1.32 0 2.64 0 4 0 C3.34 1.65 2.68 3.3 2 5 C1.01 5 0.02 5 -1 5 C-0.67 3.35 -0.34 1.7 0 0 Z " fill="#A79ECE" transform="translate(69,36)"/>
<path d="M0 0 C2.64 0 5.28 0 8 0 C6.8125 1.5625 6.8125 1.5625 5 3 C2.3125 2.6875 2.3125 2.6875 0 2 C0 1.34 0 0.68 0 0 Z " fill="#DD2E1B" transform="translate(45,25)"/>
<path d="M0 0 C1.98 0 3.96 0 6 0 C6 0.99 6 1.98 6 3 C4.02 3 2.04 3 0 3 C0 2.01 0 1.02 0 0 Z " fill="#E7CB24" transform="translate(62,84)"/>
<path d="M0 0 C3 1 3 1 5 4 C3.35 4.66 1.7 5.32 0 6 C-1.125 2.25 -1.125 2.25 0 0 Z " fill="#9183BE" transform="translate(42,80)"/>
<path d="M0 0 C0.99 0 1.98 0 3 0 C2.67 2.31 2.34 4.62 2 7 C1.34 6.67 0.68 6.34 0 6 C0 4.02 0 2.04 0 0 Z " fill="#FAF8FA" transform="translate(38,73)"/>
<path d="M0 0 C0 0.66 0 1.32 0 2 C-2.31 2.66 -4.62 3.32 -7 4 C-7 3.01 -7 2.02 -7 1 C-4.53721199 -0.231394 -2.7204945 -0.07159196 0 0 Z " fill="#F6F6FA" transform="translate(42,67)"/>
<path d="M0 0 C1.98 0.495 1.98 0.495 4 1 C4 1.66 4 2.32 4 3 C3.34 3 2.68 3 2 3 C2 4.65 2 6.3 2 8 C0.23537317 4.91190305 0 3.76687864 0 0 Z " fill="#B99CBD" transform="translate(36,70)"/>
<path d="M0 0 C2.12038635 2.61514317 4.13091744 5.19637616 6 8 C4.1875 7.875 4.1875 7.875 2 7 C0.25 3.9375 0.25 3.9375 -1 1 C-0.67 0.67 -0.34 0.34 0 0 Z " fill="#715CA8" transform="translate(52,65)"/>
<path d="M0 0 C1.32 0 2.64 0 4 0 C4 1.65 4 3.3 4 5 C2.68 4.34 1.36 3.68 0 3 C0 2.01 0 1.02 0 0 Z " fill="#F8CA17" transform="translate(63,65)"/>
<path d="M0 0 C1.65 0 3.3 0 5 0 C5 1.32 5 2.64 5 4 C3.0625 3.6875 3.0625 3.6875 1 3 C0.67 2.01 0.34 1.02 0 0 Z " fill="#F8CE17" transform="translate(56,59)"/>
</svg>
